<?xml version="1.0" encoding="UTF-8"?>
<svg width="55px" height="29px" viewBox="0 0 55 29" version="1.1" xmlns="http://www.w3.org/2000/svg" xmlns:xlink="http://www.w3.org/1999/xlink">
    <!-- Generator: Sketch 50.2 (55047) - http://www.bohemiancoding.com/sketch -->
    <title>xiQ_logo-dark</title>
    <desc>Created with Sketch.</desc>
    <defs></defs>
    <g id="Page-1" stroke="none" stroke-width="1" fill="none" fill-rule="evenodd">
        <g id="xiQ_logo-dark" fill-rule="nonzero">
            <path d="M47.7485,26.6249 C42.97365,29.6467 35.2118,29.65685 30.0469,24.08595 C24.8940416,18.5500965 24.9625102,9.95332229 30.2028895,4.5002453 C35.4432688,-0.952831733 44.0305205,-1.36309853 49.7669,3.56555 C55.6075,8.59125 55.98595,16.64455 52.5451,21.95445 C52.44215,21.8283 52.3566,21.7036 52.2551,21.59775 C50.9675,20.3062833 49.6774833,19.0177167 48.38505,17.73205 C48.2350582,17.6165554 48.1887339,17.410534 48.27485,17.24195 C49.3661595,14.2834089 48.6853379,10.9619421 46.5180771,8.67133014 C44.3508167,6.38071815 41.0720805,5.51726606 38.0577186,6.4433025 C35.0433566,7.36933895 32.8148916,9.92464785 32.30745,13.03695 C31.5346,17.60735 34.74055,21.97475 39.3211,22.60695 C40.6040744,22.7863482 41.9112444,22.6621868 43.1375,22.24445 C43.2451308,22.1846786 43.3798938,22.208247 43.46085,22.301 C44.8799167,23.7287667 46.3023667,25.1536333 47.7282,26.5756 C47.7373598,26.5909428 47.7442004,26.6075559 47.7485,26.6249 Z" id="Shape" fill="#1F245B"></path>
            <path d="M19.70115,9.95715 C19.24875,10.6314 18.8123,11.28245 18.3744,11.93205 C16.7581333,14.33035 15.1404167,16.7281667 13.52125,19.1255 C13.4246597,19.2407706 13.4322145,19.4107528 13.53865,19.517 C15.64405,22.6035667 17.7460667,25.6930333 19.8447,28.7854 C19.865,28.81585 19.8824,28.84775 19.9027,28.8811 C19.84325,28.9681 19.7577,28.9304 19.6939,28.9304 C17.8234,28.9304 15.9529,28.9304 14.0824,28.9304 C13.9227121,28.9412994 13.7719827,28.8556577 13.6996,28.7129 C12.7087667,27.1749333 11.7131,25.6398667 10.7126,24.1077 C10.4371419,23.664177 10.1901442,23.2035991 9.9731,22.72875 C8.9175,24.8907 7.4414,26.76265 6.18715,28.76945 C6.13856079,28.8724572 6.03265422,28.9360012 5.9189,28.9304 C3.97203333,28.9255667 2.02565,28.9255667 0.07975,28.9304 C0.0522844484,28.9246716 0.0255380005,28.9159182 0,28.9043 C0.34075,28.39825 0.67715,27.898 1.015,27.39775 C2.78883333,24.7742167 4.5646,22.15165 6.3423,19.53005 C6.45257158,19.400439 6.44757231,19.2085919 6.3307,19.0849 C4.36836667,16.1646 2.41038333,13.2409167 0.45675,10.31385 C0.38425,10.2051 0.31175,10.09345 0.23635,9.97455 C0.319,9.91075 0.406,9.93685 0.4843,9.93685 C2.3548,9.93685 4.2253,9.93685 6.0958,9.93685 C6.25467789,9.92078442 6.40829543,9.99901032 6.48875,10.13695 C7.28625,11.32595 8.0939,12.50915 8.89865,13.69235 C9.2887,14.2651 9.60625,14.8799 9.9441,15.4889 C10.0399267,15.3802096 10.1111502,15.2521063 10.1529,15.11335 C10.6807,13.9664 11.47675,12.992 12.17565,11.9567 C12.5947,11.3361 13.03115,10.72565 13.45455,10.10795 C13.5119448,10.0016758 13.6237851,9.93624924 13.74455,9.9383 C15.6778833,9.94313333 17.6150833,9.94313333 19.55615,9.9383 C19.6048062,9.94178424 19.6532202,9.94807804 19.70115,9.95715 Z" id="Shape" fill="#26CE0A"></path>
            <path d="M24.97045,19.43145 C24.97045,22.4982 24.97045,25.56495 24.97045,28.63025 C24.97045,28.88545 24.9052,28.942 24.6587,28.9362 C23.7887,28.92025 22.9187,28.9246 22.03855,28.9362 C21.8898588,28.9491414 21.7477896,28.8721159 21.6775,28.74045 C20.9824667,27.6664833 20.2801833,26.5968667 19.57065,25.5316 C19.4738629,25.3920859 19.4231603,25.2257814 19.42565,25.056 C19.42565,21.1255333 19.42565,17.1950667 19.42565,13.2646 C19.4196478,13.1144909 19.4623758,12.966469 19.54745,12.84265 C20.1661167,11.9455833 20.77995,11.04465 21.38895,10.13985 C21.4665672,9.99957603 21.619228,9.91785424 21.779,9.93105 C22.7476,9.9412 23.7162,9.94555 24.679,9.93105 C24.9313,9.93105 24.969,10.0108 24.969,10.2341 C24.9661,13.2994 24.9665833,16.3651833 24.97045,19.43145 Z" id="Shape" fill="#1F245B"></path>
            <path d="M54.5403,24.85445 C54.49825,24.90085 54.46345,24.94435 54.42285,24.9835 C53.24835,26.1541333 52.0743333,27.3291167 50.9008,28.50845 C50.7848,28.62445 50.72825,28.6172 50.6108,28.50845 C47.3512,25.2420833 44.0882167,21.9791 40.82185,18.7195 C40.7044,18.60205 40.67685,18.54115 40.8117,18.41065 C41.9794333,17.25065 43.1394333,16.09065 44.2917,14.93065 C44.40335,14.81755 44.46425,14.78565 44.60055,14.9176 C47.86595,18.1917 51.1347333,21.4629 54.4069,24.7312 C54.45765,24.7631 54.49535,24.8037 54.5403,24.85445 Z" id="Shape" fill="#1F245B"></path>
            <path d="M26.10145,3.58875 C26.1020338,5.0416413 25.2268952,6.35166007 23.8844855,6.90738442 C22.5420758,7.46310881 20.9970614,7.15497339 19.9705433,6.12679352 C18.9440251,5.09861365 18.6383891,3.55310292 19.196284,2.21159381 C19.754179,0.870084714 21.0656116,-0.00293383143 22.5185,1.49316916e-15 C24.4900535,0.0227742712 26.0818647,1.6171622 26.10145,3.58875 Z" id="Shape" fill="#26CE0A"></path>
        </g>
    </g>
</svg>