<svg width="116" height="24" viewBox="0 0 116 24" fill="none" xmlns="http://www.w3.org/2000/svg">
<mask id="mask0_6255_2745" style="mask-type:luminance" maskUnits="userSpaceOnUse" x="97" y="1" width="19" height="23">
<path fill-rule="evenodd" clip-rule="evenodd" d="M97.6719 1.86719H115.045V23.1588H97.6719V1.86719Z" fill="white"/>
</mask>
<g mask="url(#mask0_6255_2745)">
<path fill-rule="evenodd" clip-rule="evenodd" d="M104.842 9.96284C105.243 9.49052 105.687 9.10251 106.198 8.77524C107.347 8.04183 108.638 7.86595 109.994 7.97021C111.127 8.05633 112.146 8.40899 113.014 9.1016C113.936 9.83592 114.467 10.7742 114.749 11.8422C114.969 12.6762 115.044 13.5266 115.042 14.3851C115.036 17.2063 115.037 20.0285 115.045 22.8488C115.046 23.08 114.993 23.1597 114.719 23.1588C112.56 23.147 110.4 23.148 108.241 23.1579C107.989 23.1588 107.922 23.099 107.922 22.8669C107.93 20.256 107.926 17.6442 107.921 15.0324C107.921 14.7359 107.855 14.4449 107.779 14.1557C107.532 13.2093 106.214 12.9871 105.49 13.5574C105.097 13.8683 104.91 14.2663 104.841 14.7178C104.802 14.9762 104.782 15.2372 104.783 15.5002C104.788 17.9542 104.782 20.4092 104.791 22.8633C104.792 23.089 104.736 23.1588 104.477 23.1579C102.307 23.148 100.138 23.1489 97.9694 23.157C97.7235 23.1588 97.6719 23.0863 97.6729 22.8751C97.6768 15.9752 97.6778 9.07441 97.6719 2.17452C97.6709 1.93066 97.7482 1.86629 98.0101 1.8672C100.169 1.87626 102.329 1.87626 104.489 1.8672C104.73 1.86629 104.792 1.93066 104.791 2.14642C104.783 4.64492 104.785 7.14251 104.787 9.64101C104.787 9.73348 104.759 9.83048 104.842 9.96284Z" fill="#57ADF7"/>
</g>
<path fill-rule="evenodd" clip-rule="evenodd" d="M36.991 9.94738C37.4552 9.45239 37.9738 9.05532 38.56 8.71989C39.7302 8.04903 41.0126 7.87134 42.3554 7.97106C43.6893 8.06988 44.8477 8.53041 45.772 9.43789C46.6309 10.2801 47.0533 11.3018 47.2586 12.4169C47.4143 13.2645 47.4272 14.1176 47.4252 14.9734C47.4203 17.5943 47.4183 20.2152 47.4312 22.8351C47.4332 23.1135 47.3419 23.1624 47.0623 23.1606C44.9121 23.1497 42.762 23.1515 40.6119 23.1597C40.3749 23.1606 40.3084 23.1035 40.3094 22.8841C40.3174 20.3765 40.3134 17.8699 40.3154 15.3623C40.3164 15.0033 40.2807 14.6479 40.2003 14.2971C40.0754 13.7531 39.7441 13.3815 39.1203 13.2763C38.5034 13.1739 37.9857 13.3262 37.6049 13.7985C37.2469 14.2427 37.1755 14.7622 37.1745 15.2907C37.1685 17.8064 37.1675 20.3221 37.1775 22.8379C37.1785 23.0844 37.1189 23.1624 36.8363 23.1615C34.6763 23.1497 32.5162 23.1515 30.3572 23.1597C30.1162 23.1606 30.0547 23.0989 30.0547 22.8823C30.0616 18.1301 30.0616 13.3778 30.0547 8.6256C30.0547 8.39896 30.1142 8.32553 30.372 8.32644C32.4746 8.3355 34.5771 8.3355 36.6796 8.32644C36.9384 8.32553 37.0059 8.40077 36.996 8.62651C36.9771 9.06619 36.991 9.50679 36.991 9.94738Z" fill="#57ADF7"/>
<path fill-rule="evenodd" clip-rule="evenodd" d="M0.126494 3.24253C0.211784 3.23981 0.298067 3.23438 0.383358 3.23438H17.7014C17.7876 3.23438 17.8729 3.23981 17.9582 3.24253C18.0395 3.33319 18.0147 3.44198 18.0147 3.54442C18.0167 5.19528 18.0167 6.84704 18.0157 8.497C18.0157 8.84059 18.0098 8.84603 17.627 8.84603C16.0888 8.84693 14.5506 8.84603 13.0123 8.84693C12.6543 8.84693 12.6543 8.84784 12.6543 9.18146V22.7546C12.6543 23.1018 12.6543 23.1027 12.2814 23.1036H5.80329C5.43138 23.1027 5.43138 23.1018 5.43138 22.7546V9.18146C5.43138 8.84784 5.43138 8.84693 5.07237 8.84693C3.53515 8.84603 1.99694 8.84693 0.457739 8.84603C0.0749224 8.84603 0.0689719 8.84059 0.0689719 8.497C0.0679802 6.84704 0.0679802 5.19528 0.0699637 3.54442C0.0699637 3.44198 0.0451698 3.33319 0.126494 3.24253Z" fill="#57ADF7"/>
<mask id="mask1_6255_2745" style="mask-type:luminance" maskUnits="userSpaceOnUse" x="80" y="7" width="16" height="17">
<path fill-rule="evenodd" clip-rule="evenodd" d="M80.3906 7.77344H95.4677V23.7217H80.3906V7.77344Z" fill="white"/>
</mask>
<g mask="url(#mask1_6255_2745)">
<path fill-rule="evenodd" clip-rule="evenodd" d="M87.861 23.722C85.4055 23.6667 83.057 23.1899 80.9307 21.9769C80.7363 21.8663 80.4526 21.7657 80.3991 21.6061C80.3366 21.423 80.6361 21.2834 80.7779 21.1293C81.735 20.0967 82.7099 19.0786 83.6669 18.0469C83.8117 17.891 83.897 17.9644 84.0091 18.0524C84.6517 18.5546 85.3896 18.8955 86.1949 19.1085C86.7661 19.2599 87.3483 19.3551 87.9453 19.2255C88.223 19.1665 88.4521 19.055 88.4809 18.7586C88.5086 18.4694 88.3162 18.2999 88.0614 18.192C87.4326 17.9291 86.7602 17.7976 86.0937 17.6453C84.9145 17.3761 83.7939 16.9999 82.8775 16.2311C81.7161 15.2565 81.254 14.0435 81.4027 12.6248C81.6398 10.3747 83.1631 9.08552 85.3271 8.31766C87.3671 7.5924 89.4558 7.6604 91.5494 8.12184C92.8773 8.41466 94.123 8.88607 95.2903 9.5388C95.5194 9.66663 95.5124 9.74459 95.3508 9.91865C94.3511 10.9975 93.3613 12.0835 92.3725 13.1705C92.2614 13.2929 92.1732 13.321 92.0135 13.2313C91.1487 12.7435 90.2204 12.4172 89.1939 12.3736C88.8885 12.36 88.584 12.3936 88.2915 12.4779C88.0376 12.5513 87.8888 12.719 87.8819 12.962C87.8759 13.1905 88.0326 13.3283 88.2528 13.4117C88.822 13.6247 89.427 13.709 90.0231 13.826C91.4056 14.0961 92.7018 14.5412 93.7431 15.4551C94.838 16.4151 95.1584 17.6163 95.0582 18.9671C94.8926 21.2136 93.033 22.8082 90.513 23.4066C89.6511 23.6124 88.7715 23.703 87.861 23.722Z" fill="#57ADF7"/>
</g>
<path fill-rule="evenodd" clip-rule="evenodd" d="M54.6683 5.02114C55.7196 5.02114 56.7698 5.02658 57.8211 5.01661C58.0442 5.0148 58.1156 5.06828 58.1127 5.27861C58.0998 6.20421 58.1137 7.12982 58.1018 8.05542C58.0988 8.26846 58.1573 8.34008 58.4013 8.33736C59.3851 8.32467 60.3699 8.33827 61.3537 8.32739C61.5719 8.32558 61.6165 8.38179 61.6145 8.5776C61.6026 9.9574 61.6026 11.3372 61.6136 12.717C61.6155 12.9364 61.5461 12.9971 61.3081 12.9944C60.3342 12.9826 59.3593 12.9935 58.3844 12.9862C58.1761 12.9844 58.1018 13.0379 58.1027 13.2365C58.1117 14.4513 58.1037 15.6651 58.1097 16.879C58.1107 17.0957 58.1305 17.3151 58.1692 17.529C58.309 18.2924 58.8763 18.7148 59.7748 18.7493C60.2271 18.7674 60.6724 18.723 61.1088 18.626C61.2654 18.5906 61.3131 18.6215 61.3121 18.7683C61.3091 20.1391 61.3081 21.5107 61.3131 22.8814C61.314 23.0256 61.2397 23.0772 61.1078 23.118C60.5633 23.2894 60.002 23.3936 59.4337 23.448C57.9946 23.5849 56.5566 23.613 55.1384 23.3039C53.862 23.0256 52.7622 22.4889 52.057 21.4237C51.5344 20.6349 51.2963 19.7619 51.2805 18.8535C51.2507 17.0295 51.2646 15.2037 51.2616 13.3779C51.2606 12.9899 51.2616 12.9899 50.8233 12.9899C50.2877 12.9899 49.7532 12.9835 49.2176 12.9926C49.0292 12.9962 48.9727 12.9409 48.9737 12.7696C48.9806 11.3635 48.9806 9.9574 48.9727 8.55131C48.9717 8.37363 49.0351 8.32648 49.2186 8.3292C49.8018 8.33736 50.3849 8.32558 50.9671 8.33555C51.1674 8.33918 51.2279 8.28297 51.2259 8.09894C51.218 7.16427 51.2289 6.2296 51.217 5.29583C51.214 5.08188 51.2706 5.01298 51.5145 5.0157C52.5658 5.02839 53.617 5.02114 54.6683 5.02114Z" fill="#57ADF7"/>
<path fill-rule="evenodd" clip-rule="evenodd" d="M19.6183 15.7384C19.6183 13.3623 19.6212 10.9862 19.6133 8.61008C19.6133 8.39794 19.6659 8.32723 19.9118 8.32813C22.0798 8.33629 24.2497 8.33629 26.4187 8.32813C26.6785 8.32723 26.7351 8.40247 26.7351 8.6273C26.7281 13.3795 26.7281 18.1327 26.7351 22.884C26.7351 23.1016 26.6726 23.1614 26.4336 23.1614C24.2646 23.1532 22.0947 23.1523 19.9257 23.1614C19.6629 23.1632 19.6123 23.0898 19.6133 22.8658C19.6222 20.4897 19.6183 18.1145 19.6183 15.7384Z" fill="#57ADF7"/>
<mask id="mask2_6255_2745" style="mask-type:luminance" maskUnits="userSpaceOnUse" x="19" y="0" width="8" height="8">
<path fill-rule="evenodd" clip-rule="evenodd" d="M19.4961 0.757812H26.8523V7.37331H19.4961V0.757812Z" fill="white"/>
</mask>
<g mask="url(#mask2_6255_2745)">
<path fill-rule="evenodd" clip-rule="evenodd" d="M23.1947 0.762966C24.8489 0.660524 26.8572 2.09653 26.8523 4.06015C26.8463 5.87873 25.2198 7.37184 23.2215 7.37365C21.1239 7.37637 19.5242 5.93675 19.4964 4.07194C19.4677 2.23886 21.2935 0.704946 23.1947 0.762966Z" fill="#57ADF7"/>
</g>
<path fill-rule="evenodd" clip-rule="evenodd" d="M0.126465 3.24219C0.126465 4.99821 0.131424 6.75332 0.119523 8.50934C0.117539 8.74414 0.193904 8.80035 0.442834 8.79854C1.98104 8.78857 3.52024 8.794 5.05845 8.794C5.45813 8.794 5.45912 8.794 5.45912 9.1521V22.6989C5.45912 23.0507 5.45912 23.0507 5.8469 23.0507C7.99702 23.0507 10.1461 23.0461 12.2963 23.0561C12.5571 23.057 12.6325 22.9954 12.6315 22.7515C12.6245 18.2277 12.6265 13.7031 12.6265 9.17839C12.6265 8.794 12.6265 8.794 13.055 8.794C14.5842 8.794 16.1125 8.78857 17.6418 8.79854C17.8898 8.80035 17.9661 8.74505 17.9651 8.50934C17.9542 6.75332 17.9582 4.99821 17.9582 3.24219C18.1169 3.25669 18.0603 3.37001 18.0603 3.44345C18.0643 5.18133 18.0593 6.91922 18.0673 8.65711C18.0683 8.86472 17.9741 8.90007 17.7757 8.90007C16.1899 8.89463 14.6041 8.90279 13.0183 8.89101C12.7535 8.88919 12.686 8.95537 12.687 9.19561C12.695 13.7366 12.693 18.2767 12.693 22.8177C12.693 23.1567 12.692 23.1567 12.325 23.1567C10.1174 23.1567 7.91173 23.1531 5.70508 23.1622C5.45218 23.164 5.38573 23.1042 5.38672 22.873C5.39466 18.3229 5.3897 13.7738 5.39763 9.22372C5.39863 8.96353 5.33714 8.88738 5.03961 8.88919C3.46272 8.90461 1.88683 8.89191 0.310931 8.90189C0.0689433 8.9037 0.00844634 8.83843 0.0104298 8.62266C0.0193556 6.91106 0.0134051 5.19947 0.0203474 3.48787C0.0203474 3.40537 -0.0689104 3.26395 0.126465 3.24219Z" fill="#57ADF7"/>
<path fill-rule="evenodd" clip-rule="evenodd" d="M72.6541 17.6533C72.5857 18.7911 71.7735 19.5626 70.5377 19.6296C70.0746 19.6541 69.6432 19.5281 69.2445 19.2888C68.5929 18.8953 68.6951 17.8881 69.2951 17.5355C69.8118 17.2336 70.3969 17.1583 70.9801 17.0849C71.3093 17.0441 71.6416 17.0006 71.9192 17.026H72.0055C72.6918 17.026 72.6918 17.026 72.6541 17.6533ZM78.8638 15.1639C78.8638 14.2265 78.7497 13.3009 78.5067 12.3907C77.8829 10.0608 76.3031 8.59039 73.7453 8.03648C72.3003 7.72371 70.8316 7.70377 69.3647 7.90321C67.1869 8.19966 65.246 8.97749 63.5838 10.3129C63.4182 10.4461 63.4271 10.5214 63.5808 10.6583C64.5419 11.5213 65.4929 12.3934 66.448 13.2628C66.9161 13.6898 66.9181 13.6935 67.4517 13.3607C68.4484 12.737 69.5165 12.3526 70.7542 12.4587C71.5436 12.5258 72.0931 12.9347 72.1853 13.5602C72.2111 13.7279 72.1774 13.824 71.9542 13.8195C70.9982 13.8013 70.0471 13.8811 69.099 13.9817C67.7799 14.1232 66.5025 14.4051 65.3362 15.0034C64.2245 15.5746 63.3289 16.3334 62.959 17.5047C62.7696 18.1012 62.7567 18.7122 62.8053 19.3223C62.9213 20.7538 63.6294 21.8834 64.9475 22.6712C66.1366 23.3819 67.4675 23.6176 68.8599 23.5206C70.2355 23.4236 71.5169 23.0964 72.4352 21.9251C72.4352 22.3004 72.4511 22.5959 72.4293 22.8888C72.4144 23.1127 72.5027 23.1635 72.7357 23.1625C74.6756 23.1544 76.6155 23.1526 78.5553 23.1635C78.8171 23.1653 78.8687 23.0918 78.8687 22.8679C78.8598 20.3005 78.8618 17.7322 78.8638 15.1639Z" fill="#57ADF7"/>
</svg>
